<svg xmlns="http://www.w3.org/2000/svg" viewBox="0 0 24 24" fill="#7a5b43" width="24px" height="24px">
  <path d="M12 .3A12 12 0 000 12.6c0 5.4 3.4 10 8.2 11.6.6.1.8-.3.8-.6v-2c-3.3.7-4-1.5-4-1.5-.5-1.2-1.3-1.6-1.3-1.6-1-.6.1-.6.1-.6 1.1.1 1.6 1.2 1.6 1.2 1 1.6 2.6 1.1 3.3.9.1-.7.4-1.1.7-1.4-2.6-.3-5.4-1.3-5.4-5.9 0-1.3.5-2.4 1.2-3.2-.1-.3-.5-1.6.1-3.3 0 0 1-.3 3.3 1.2a11.4 11.4 0 016 0c2.3-1.5 3.3-1.2 3.3-1.2.6 1.7.2 3 .1 3.3.8.8 1.2 1.9 1.2 3.2 0 4.6-2.8 5.6-5.4 5.9.4.3.8 1 .8 2v3c0 .3.2.7.8.6A12.3 12.3 0 0024 12.6 12 12 0 0012 .3z"></path>
</svg>
